<svg xmlns="http://www.w3.org/2000/svg" viewBox="0 0 16.519 16.907">
  <defs>
    <style>
      .cls-1 {
        fill: #007791;
        stroke: #007791;
      }
    </style>
  </defs>
  <g id="chat-comment-oval-speech-bubble-with-text-lines" transform="translate(0.5 0.5)">
    <g id="_x32__26_">
      <g id="Group_284" data-name="Group 284">
        <path id="Path_335" data-name="Path 335" class="cls-1" d="M10.184,8.244H5.335a.485.485,0,1,0,0,.97h4.85a.485.485,0,0,0,0-.97Zm.97-2.91H4.365a.485.485,0,1,0,0,.97h6.79a.485.485,0,0,0,0-.97ZM7.759,0C3.474,0,0,3.04,0,6.79a6.5,6.5,0,0,0,2.91,5.3v3.434l3.4-2.063a8.9,8.9,0,0,0,1.451.123c4.286,0,7.759-3.04,7.759-6.79S12.045,0,7.759,0Zm0,12.609a7.848,7.848,0,0,1-1.639-.178L3.837,13.8l.031-2.249A5.623,5.623,0,0,1,.97,6.79C.97,3.576,4.01.97,7.759.97s6.79,2.606,6.79,5.82S11.509,12.609,7.759,12.609Z"/>
      </g>
    </g>
  </g>
</svg>
