<svg xmlns="http://www.w3.org/2000/svg" viewBox="0 0 18.185 17.88">
  <defs>
    <style>
      .cls-1 {
        fill: #11171a;
      }
    </style>
  </defs>
  <g id="sharing-interface" transform="translate(0 0)">
    <g id="Group_283" data-name="Group 283" transform="translate(0 0)">
      <path id="Path_332" data-name="Path 332" class="cls-1" d="M15.071,12.06a3.1,3.1,0,0,0-2.254.971L6.189,9.785a2.834,2.834,0,0,0,0-.92l6.618-3.209a3.111,3.111,0,1,0-.852-2.135,3.136,3.136,0,0,0,.037.454L5.376,7.184a3.114,3.114,0,1,0-.008,4.279L12,14.708a3.072,3.072,0,0,0-.039.465,3.114,3.114,0,1,0,3.114-3.114Z" transform="translate(0 -0.407)"/>
    </g>
  </g>
</svg>
