<svg xmlns="http://www.w3.org/2000/svg" viewBox="0 0 158.916 163.204">
  <defs>
    <style>
      .cls-1 {
        fill: #383838;
      }
    </style>
  </defs>
  <g id="Group_282" data-name="Group 282" transform="translate(0.004 0.003)">
    <path id="Path_313" data-name="Path 313" class="cls-1" d="M154.78,19.855C147.871,8.048,132.235.251,114.948,0,98.1-.193,83.107,6.55,74.061,18.343,64.585,6.522,44.676-.984,24.267,5.9,7.174,11.669-1.788,25.724.293,43.5c4.953,42.163,85.5,118.4,88.629,119.7l1.54-3.607c.166-.375,12.3-42.325,33.724-66.772.725-.6.833-2.122.108-2.488s-1.494-.388-2.507.778c-18.3,20.867-32.493,50.155-37.155,60.324C70.745,138.187,10,78.556,5.815,42.844,3.276,21.256,19.12,13.5,26.043,11.156,41.152,6.064,62.893,9.755,71.675,24.6l2.331,3.926,2.414-3.871c7.492-12,21.533-19.1,37.668-19.1h.777c15.386.222,29.177,6.937,35.129,17.107,12,20.506-11.9,48.8-19.1,54.164-.111.083-.194.139-.277.194-.638-1.374-1.027-5.175-.819-8.546v-.014c.277-3.982-1.1-7.561-4.079-9.587a9.478,9.478,0,0,0-7.117-1.29h-.111c-9.254.749-14.152,8.213-17.2,14.179.458-3.274,4.7-17.72,2.844-18.328s-13.027,13.222-15.969,17c-1.582-13.749-5.064-17.731-6.271-18.716-.166-.166-.305-.347-.486-.513-3.177-2.969-7.714-4-12.764-2.886A27.33,27.33,0,0,0,48.713,69.677c-.749,5.12.6,9.573,3.774,12.528a12.85,12.85,0,0,0,8.99,3.344c5.55,0,11.821-2.872,16.829-8.255a28.468,28.468,0,0,0,4.3-6.007c.208,1.831.388,3.843.527,6.1a88.7,88.7,0,0,0-11.4,23.53c-3.954,13.083-2.747,22.5-.305,26.957,1.4,2.553,3.469,3.968,5.688,3.968a6.142,6.142,0,0,0,1.11-.111c5.12-1.082,8.56-9.212,9.712-22.892a240.176,240.176,0,0,0,.888-29.968c2.081-3,5.847-8.931,8.511-12.052-1.734,11.321-1.5,15.562-.63,16.284a3.3,3.3,0,0,0,3.427.5c2.012-.819,3.08-3.08,4.717-6.493.153-.305.291-.624.444-.943A9.7,9.7,0,0,0,109.3,83.2a9.013,9.013,0,0,0,5.092,1.512c3.788,0,7.88-2.109,11.016-5.883a6.321,6.321,0,0,0,2.678,3.358c1.054.569,3.26,1.207,6.118-.93,3.247-2.428,11.959-11.224,18.217-22.962C160.191,43.774,161,30.469,154.78,19.855ZM79.694,62.934A20.186,20.186,0,0,1,74.255,73.52c-5.785,6.2-14.013,8.324-17.981,4.634-1.8-1.679-2.539-4.412-2.067-7.672A21.83,21.83,0,0,1,69.83,53.735a12.824,12.824,0,0,1,2.636-.305,7.435,7.435,0,0,1,5.161,1.817h0C79.43,56.954,80.166,59.673,79.694,62.934ZM82.4,108.371c-1.165,13.957-4.551,17.745-5.217,17.939-.236-.1-1.263-1.054-1.942-4.093-1.429-6.493-.416-19.118,8.144-34.657C83.371,93.415,83.079,100.3,82.4,108.371ZM122.051,74.1c-2.719,4.023-7.215,6.132-9.642,4.509-1.415-.957-1.651-2.844-1.665-3.885a13.14,13.14,0,0,1,7.645-11.335,6.3,6.3,0,0,1,2.261-.472,3.393,3.393,0,0,1,1.956.555C125.034,65.112,124.757,70.079,122.051,74.1Z" transform="translate(0 0)"/>
    <path id="Path_314" data-name="Path 314" class="cls-1" d="M79.089,37.124a3.212,3.212,0,0,0,.638.069,3.794,3.794,0,0,0,.694-.069A3.4,3.4,0,1,0,76.3,33.767a3.384,3.384,0,0,0,.18,1.068A3.448,3.448,0,0,0,79.089,37.124Z" transform="translate(28.173 11.755)"/>
  </g>
</svg>
